<svg xmlns="http://www.w3.org/2000/svg" xmlns:xlink="http://www.w3.org/1999/xlink" viewBox="0 0 284 116"><defs><path id="a" d="M-.5.5h284v116H-.5z"/></defs><clipPath id="b"><use xlink:href="#a" overflow="visible"/></clipPath><g clip-path="url(#b)"><circle fill="#00FFBC" cx="141" cy="146" r="144"/><linearGradient id="c" gradientUnits="userSpaceOnUse" x1="19" y1="146" x2="263" y2="146"><stop offset="0" stop-color="#a9e0ff"/><stop offset="1" stop-color="#34cbff"/></linearGradient><circle fill="url(#c)" cx="141" cy="146" r="122"/><path fill="none" stroke="#F2F2F2" stroke-width="1.123" stroke-miterlimit="10" d="M252.5 96.8l-46.2 11.6m19.1 23.1l-20-22.2 13.9-24.2V45.2l-32.2 17m9.9 19.1l8.4 28m0 0l-49-24.1m22.2 33.8c-1.9-1.1-19.3-32.4-19.3-32.4"/><path fill="none" stroke="#F2F2F2" stroke-width="1.123" stroke-miterlimit="10" d="M178.6 119.8l8.6-58.5c-1.1.3-30 22.7-30 22.7l25.2-69.9-45.2 31m-22.3-24.8l23 24.9m-.7-.7l19.2 40.6m-19.2-38.8c-1.9 1.5-47.9 71.7-47.9 71.7M154 83.2c-2.2-.6-43.7-24.9-43.7-24.9"/><path fill="none" stroke="#F2F2F2" stroke-width="1.123" stroke-miterlimit="10" d="M154 86.5c-1.5 1-27 16-27 16L85.9 85.1s-49.8-9.2-49.8-8.5c0 .7 51.8 39.9 51.8 39.9l39.2-13.2"/><path fill="none" stroke="#F2F2F2" stroke-width="1.123" stroke-miterlimit="10" d="M89.3 114.1c1.9-2.4 21.1-57.1 21.1-57.1S86 86 86 85.6s-2.3-24.1-2.3-24.1l-10.2-20"/><circle fill="#05C7DB" cx="182.4" cy="14.2" r="10.6"/><circle fill="#05C7DB" cx="156.4" cy="85.1" r="10.6"/><circle fill="#05C7DB" cx="205.1" cy="109.3" r="10.6"/><circle fill="#03DDC2" cx="186.8" cy="61.4" r="6"/><circle fill="#03DDC2" cx="137.9" cy="45.2" r="6"/><circle fill="#03DDC2" cx="85.9" cy="85.1" r="6"/><circle fill="#03DDC2" cx="114.9" cy="20.3" r="6"/><circle fill="#03DDC2" cx="219.3" cy="45.2" r="6"/><circle fill="#03DDC2" cx="253.5" cy="96.8" r="4.2"/><circle fill="#03DDC2" cx="219" cy="84.1" r="3.8"/><circle fill="#03DDC2" cx="196.7" cy="81.3" r="3.8"/><circle fill="#03DDC2" cx="127.1" cy="102.5" r="3.8"/><circle fill="#03DDC2" cx="110.3" cy="57.6" r="3.8"/><circle fill="#03DDC2" cx="82.9" cy="60.8" r="3.8"/><circle fill="#03DDC2" cx="73.4" cy="41.4" r="3.8"/><circle fill="#03DDC2" cx="87.9" cy="116.6" r="10.6"/><circle fill="#05C7DB" cx="38.1" cy="77.4" r="10.6"/></g></svg>