<?xml version="1.0" encoding="utf-8"?>
<!-- Generator: Adobe Illustrator 19.0.1, SVG Export Plug-In . SVG Version: 6.00 Build 0)  -->
<svg version="1.1" id="Layer_1" xmlns="http://www.w3.org/2000/svg" xmlns:xlink="http://www.w3.org/1999/xlink" x="0px" y="0px"
	 viewBox="0 0 85 23" enable-background="new 0 0 85 23" xml:space="preserve">
<g>
	<path fill="#808080" d="M3.7,6.8C4,7.2,4.1,7.6,4.2,8.3c1-1,2.2-1.5,3.6-1.5c1.2,0,2.2,0.4,3,1.2c0.2,0.2,0.4,0.5,0.6,0.7
		c1.3-1.4,2.6-1.9,4.2-1.9c1.2,0,2.2,0.3,2.9,0.9c0.8,0.7,1.1,1.6,1.1,3.6v10.5h-3.7v-9.7c0-1.8-0.2-2.1-1.2-2.1
		c-0.7,0-1.7,0.5-2.6,1.2v10.6H8.4v-9.6c0-1.8-0.3-2.3-1.3-2.3c-0.7,0-1.7,0.4-2.5,1.1v10.7H0.8V11.5c0-2.1-0.1-3-0.6-3.8L3.7,6.8z"
		/>
	<path fill="#808080" d="M33.4,9c1.2,1.4,1.7,3,1.7,5.4c0,2.5-0.6,4.3-1.8,5.7c-1.1,1.3-2.6,2-4.9,2c-4,0-6.6-3-6.6-7.6
		c0-4.6,2.6-7.7,6.6-7.7C30.4,6.8,32.1,7.5,33.4,9z M26.4,11.1c-0.3,0.8-0.4,1.8-0.4,3.3c0,1.7,0.2,3,0.5,3.7c0.3,0.8,1.2,1.2,2,1.2
		c1.7,0,2.4-1.5,2.4-5c0-2-0.3-3.3-0.8-3.9c-0.4-0.5-1-0.8-1.7-0.8C27.5,9.6,26.7,10.2,26.4,11.1z"/>
	<path fill="#808080" d="M47.5,7.1v2.6L41,19.1h6.8l-0.9,2.7H35.9v-2.4l6.9-9.6h-6.4V7.1H47.5z"/>
	<path fill="#808080" d="M54,3c0,1.3-1.1,2.4-2.4,2.4c-1.3,0-2.4-1.1-2.4-2.4c0-1.3,1.1-2.4,2.4-2.4C53,0.6,54,1.7,54,3z M53.5,6.7
		v15.1h-3.9V7.3L53.5,6.7z"/>
	<path fill="#808080" d="M60.6,4.3v11.5c0,2.5,0,2.9,0.3,3.3c0.1,0.3,0.5,0.4,0.8,0.4c0.1,0,0.2,0,0.4-0.1l0.7,2.3
		c-0.7,0.3-1.5,0.4-2.3,0.4c-1.6,0-3-0.8-3.4-2c-0.3-0.7-0.4-1.2-0.4-3.3v-11c0-1.9,0-3.1-0.2-4.4l3.9-0.9
		C60.5,1.3,60.6,2.3,60.6,4.3z"/>
	<path fill="#808080" d="M68.6,4.3v11.5c0,2.5,0,2.9,0.3,3.3c0.1,0.3,0.4,0.4,0.8,0.4c0.1,0,0.2,0,0.4-0.1l0.7,2.3
		c-0.7,0.3-1.5,0.4-2.3,0.4c-1.6,0-3-0.8-3.4-2c-0.3-0.7-0.3-1.2-0.3-3.3v-11c0-1.9-0.1-3.1-0.2-4.4l3.9-0.9
		C68.5,1.3,68.6,2.3,68.6,4.3z"/>
	<path fill="#808080" d="M74.6,7.6c1.4-0.6,2.7-0.9,4-0.9c2.5,0,4.2,0.9,4.8,2.6c0.2,0.6,0.3,1.1,0.3,2.6l-0.1,5c0,0.1,0,0.2,0,0.3
		c0,1.6,0.3,2.2,1.4,3l-2,2.4c-0.9-0.4-1.7-1-2.1-1.8c-0.3,0.3-0.6,0.6-0.9,0.8c-0.7,0.5-1.8,0.8-3,0.8c-3.3,0-5.1-1.7-5.1-4.6
		c0-3.5,2.4-5.1,7.1-5.1c0.3,0,0.5,0,0.9,0v-0.6c0-1.6-0.3-2.2-1.7-2.2c-1.2,0-2.7,0.6-4.3,1.7l-1.6-2.8C73,8.3,73.6,8,74.6,7.6z
		 M79.6,15.4c-2.7,0-3.6,0.5-3.6,2.2c0,1.1,0.7,1.9,1.7,1.9c0.7,0,1.4-0.4,2-1l0.1-3.2H79.6z"/>
</g>
</svg>
