<svg xmlns="http://www.w3.org/2000/svg" viewBox="0 0 1536 1536"><title>cog</title><g id="Layer_2" data-name="Layer 2"><g id="Layer_1-2" data-name="Layer 1"><path d="M1024,768q0-106-75-181T768,512q-106,0-181,75T512,768q0,106,75,181t181,75q106,0,181-75T1024,768Zm512-109V881q0,12-8,23t-20,13l-185,28q-19,54-39,91,35,50,107,138,10,12,10,25a33.37,33.37,0,0,1-9,23q-27,37-99,108t-94,71q-12,0-26-9l-138-108a570.87,570.87,0,0,1-91,38q-16,136-29,186-7,28-36,28H657a37.77,37.77,0,0,1-24.5-8.5A29.63,29.63,0,0,1,621,1506l-28-184a618.1,618.1,0,0,1-90-37L362,1392q-10,9-25,9-14,0-25-11-126-114-165-168a39.09,39.09,0,0,1-7-23q0-12,8-23,15-21,51-66.5t54-70.5q-27-50-41-99L29,913A31.49,31.49,0,0,1,8,900.5,37.83,37.83,0,0,1,0,877V655q0-12,8-23t19-13l186-28a493.55,493.55,0,0,1,39-92q-40-57-107-138-10-12-10-24,0-10,9-23,26-36,98.5-107.5T337,135q13,0,26,10L501,252a570.87,570.87,0,0,1,91-38Q608,78,621,28q7-28,36-28H879a37.77,37.77,0,0,1,24.5,8.5A29.63,29.63,0,0,1,915,30l28,184a618.1,618.1,0,0,1,90,37l142-107q9-9,24-9,13,0,25,10,129,119,165,170,7,8,7,22,0,12-8,23-15,21-51,66.5T1283,497q26,50,41,98l183,28a31.49,31.49,0,0,1,21,12.5A37.83,37.83,0,0,1,1536,659Z" style="fill:#fff"/></g></g></svg>