<?xml version="1.0" encoding="UTF-8"?>
<!-- Generator: Adobe Illustrator 20.1.0, SVG Export Plug-In . SVG Version: 6.00 Build 0)  -->
<svg version="1.1" id="Layer_1" xmlns="http://www.w3.org/2000/svg" xmlns:xlink="http://www.w3.org/1999/xlink" x="0px" y="0px" width="1330.1px" height="195.8px" viewBox="0 0 1330.1 195.8" style="enable-background:new 0 0 1330.1 195.8;" xml:space="preserve">
<style type="text/css">
	.st0{fill:#99999A;}
	.st1{fill:#2D368F;}
	.st2{fill:#03A550;}
	.st3{fill:#EB2227;}
	.st4{fill:#231F20;}
</style>
<g>
	<g>
		<g>
			<g>
				<g>
					<g>
						<path class="st0" d="M225.2,195.8H29.4V0h195.8V195.8z M31.9,193.2h190.7V2.5H31.9V193.2z"/>
					</g>
					<g>
						<path class="st1" d="M237.8,181H16.7V14.7h221.1V181z M19.3,178.5h216V17.3h-216V178.5z"/>
					</g>
					<g>
						<path class="st2" d="M247.6,166H6.9V29.8h240.7V166z M9.5,163.5l235.6,0V32.3l-235.6,0V163.5z"/>
					</g>
					<g>
						<path class="st3" d="M254.5,151.8H0V44h254.5V151.8z M2.5,149.2H252V46.5H2.5V149.2z"/>
					</g>
					<rect x="29.4" y="13.7" class="st0" width="2.5" height="6.9"/>
					<rect x="16.7" y="28.6" class="st1" width="2.5" height="6.9"/>
					<rect x="16.7" y="161.3" class="st1" width="2.5" height="6.9"/>
					<rect x="6.9" y="41.8" class="st2" width="2.5" height="6.9"/>
					<rect x="6.9" y="148.3" class="st2" width="2.5" height="6.9"/>
					<rect x="222.6" y="12.6" class="st0" width="2.5" height="6.9"/>
					<polygon class="st0" points="225.2,183.2 222.6,183.2 222.6,176.3 225.2,176.4      "/>
					<rect x="29.4" y="176.3" class="st0" width="2.5" height="6.9"/>
					<rect x="235.3" y="27.6" class="st1" width="2.5" height="6.9"/>
					<rect x="235.3" y="161.3" class="st1" width="2.5" height="6.9"/>
					<polygon class="st2" points="247.6,48.7 245.1,48.7 245.1,41.9 247.6,41.8      "/>
					<rect x="245.1" y="147.1" class="st2" width="2.5" height="6.9"/>
				</g>
			</g>
		</g>
	</g>
</g>
<g>
	<path class="st4" d="M389.4,70.2v69.2h-12.2V70.2h-18.5V58.7h49.2v11.4H389.4z"/>
	<path class="st4" d="M434.5,90.3h34.8V58.7h12.2v80.7h-12.2v-37.7h-34.8v37.7h-12.2V58.7h12.2V90.3z"/>
	<path class="st4" d="M542.1,70.2h-32.3v19.4h31.4V101h-31.4v27h32.3v11.4h-44.5V58.7h44.5V70.2z"/>
	<path class="st4" d="M630.4,97.4h33.3v2.7c0,6.1-0.7,11.4-2.1,16.1c-1.4,4.3-3.7,8.4-7.1,12.1c-7.5,8.4-17,12.6-28.6,12.6   c-11.3,0-21-4.1-29-12.2c-8-8.2-12.1-18-12.1-29.5c0-11.7,4.1-21.6,12.3-29.8c8.2-8.2,18.1-12.3,29.9-12.3c6.3,0,12.2,1.3,17.7,3.9   c5.2,2.6,10.4,6.8,15.4,12.5l-8.7,8.3c-6.6-8.8-14.7-13.2-24.2-13.2c-8.5,0-15.7,2.9-21.5,8.8c-5.8,5.8-8.7,13-8.7,21.7   c0,9,3.2,16.4,9.7,22.2c6,5.4,12.6,8.1,19.6,8.1c6,0,11.4-2,16.1-6.1c4.8-4.1,7.4-9,8-14.6h-20.1V97.4z"/>
	<path class="st4" d="M694.5,58.7V128h23.7v11.4h-35.9V58.7H694.5z"/>
	<path class="st4" d="M789.1,119.8h-34.5l-9,19.6h-13.1l39.9-85.7l38.5,85.7h-13.3L789.1,119.8z M784.1,108.4l-12-27.4l-12.5,27.4   H784.1z"/>
	<path class="st4" d="M869.8,70.7l-9.9,5.9c-1.8-3.2-3.6-5.3-5.3-6.3c-1.7-1.1-4-1.7-6.7-1.7c-3.4,0-6.2,1-8.4,2.9   c-2.2,1.9-3.3,4.2-3.3,7.1c0,3.9,2.9,7.1,8.8,9.5l8,3.3c6.5,2.6,11.3,5.9,14.4,9.7c3,3.8,4.5,8.5,4.5,14c0,7.4-2.5,13.5-7.4,18.4   c-5,4.9-11.2,7.3-18.5,7.3c-7,0-12.8-2.1-17.3-6.2c-4.5-4.1-7.3-10-8.4-17.5l12.3-2.7c0.6,4.7,1.5,8,2.9,9.8   c2.5,3.5,6.2,5.2,11,5.2c3.8,0,6.9-1.3,9.5-3.8c2.5-2.5,3.8-5.8,3.8-9.7c0-1.6-0.2-3-0.7-4.3c-0.4-1.3-1.1-2.5-2-3.6   c-0.9-1.1-2.1-2.1-3.6-3.1c-1.5-1-3.2-1.9-5.2-2.7l-7.8-3.2c-11-4.7-16.6-11.5-16.6-20.5c0-6.1,2.3-11.1,6.9-15.2   c4.6-4.1,10.4-6.2,17.3-6.2C857.3,57.2,864.6,61.7,869.8,70.7z"/>
	<path class="st4" d="M935.4,70.7l-9.9,5.9c-1.8-3.2-3.6-5.3-5.3-6.3c-1.7-1.1-4-1.7-6.7-1.7c-3.4,0-6.2,1-8.4,2.9   c-2.2,1.9-3.3,4.2-3.3,7.1c0,3.9,2.9,7.1,8.8,9.5l8,3.3c6.5,2.6,11.3,5.9,14.4,9.7c3,3.8,4.5,8.5,4.5,14c0,7.4-2.5,13.5-7.4,18.4   c-5,4.9-11.2,7.3-18.5,7.3c-7,0-12.8-2.1-17.3-6.2c-4.5-4.1-7.3-10-8.4-17.5l12.3-2.7c0.6,4.7,1.5,8,2.9,9.8   c2.5,3.5,6.2,5.2,11,5.2c3.8,0,6.9-1.3,9.5-3.8c2.5-2.5,3.8-5.8,3.8-9.7c0-1.6-0.2-3-0.7-4.3c-0.4-1.3-1.1-2.5-2-3.6   c-0.9-1.1-2.1-2.1-3.6-3.1c-1.5-1-3.2-1.9-5.2-2.7l-7.8-3.2c-11-4.7-16.6-11.5-16.6-20.5c0-6.1,2.3-11.1,6.9-15.2   c4.6-4.1,10.4-6.2,17.3-6.2C922.9,57.2,930.1,61.7,935.4,70.7z"/>
	<path class="st4" d="M1012.5,105l25,34.4h-14.9l-23-33h-2.2v33h-12.2V58.7h14.3c10.7,0,18.4,2,23.1,6c5.2,4.5,7.8,10.3,7.8,17.7   c0,5.7-1.6,10.6-4.9,14.7C1022.2,101.2,1017.9,103.9,1012.5,105z M997.3,95.8h3.9c11.5,0,17.3-4.4,17.3-13.2   c0-8.3-5.6-12.4-16.8-12.4h-4.3V95.8z"/>
	<path class="st4" d="M1047,98.7c0-11.4,4.2-21.1,12.5-29.3c8.3-8.2,18.3-12.2,29.9-12.2c11.5,0,21.4,4.1,29.6,12.3   c8.3,8.2,12.4,18.1,12.4,29.6c0,11.6-4.1,21.4-12.4,29.5c-8.3,8.1-18.4,12.2-30.1,12.2c-10.4,0-19.8-3.6-28.1-10.8   C1051.5,122.1,1047,111.6,1047,98.7z M1059.2,98.9c0,8.9,3,16.2,9,22c6,5.7,12.8,8.6,20.6,8.6c8.5,0,15.6-2.9,21.4-8.8   c5.8-5.9,8.7-13.1,8.7-21.6c0-8.6-2.9-15.8-8.6-21.6c-5.7-5.9-12.8-8.8-21.2-8.8c-8.4,0-15.5,2.9-21.3,8.8   C1062.1,83.2,1059.2,90.4,1059.2,98.9z"/>
	<path class="st4" d="M1145.8,98.7c0-11.4,4.2-21.1,12.5-29.3c8.3-8.2,18.3-12.2,29.9-12.2c11.5,0,21.4,4.1,29.6,12.3   c8.3,8.2,12.4,18.1,12.4,29.6c0,11.6-4.1,21.4-12.4,29.5c-8.3,8.1-18.4,12.2-30.1,12.2c-10.4,0-19.8-3.6-28.1-10.8   C1150.3,122.1,1145.8,111.6,1145.8,98.7z M1158.1,98.9c0,8.9,3,16.2,9,22c6,5.7,12.8,8.6,20.6,8.6c8.5,0,15.6-2.9,21.4-8.8   c5.8-5.9,8.7-13.1,8.7-21.6c0-8.6-2.9-15.8-8.6-21.6c-5.7-5.9-12.8-8.8-21.2-8.8c-8.4,0-15.5,2.9-21.3,8.8   C1160.9,83.2,1158.1,90.4,1158.1,98.9z"/>
	<path class="st4" d="M1241.5,139.4l17-86.7l27.7,62.7l28.7-62.7l15.3,86.7h-12.5l-7.8-48.7l-23.9,52.4l-23.2-52.5l-8.7,48.7H1241.5   z"/>
</g>
</svg>