<?xml version="1.0" encoding="utf-8"?>
<!-- Generator: Adobe Illustrator 21.0.0, SVG Export Plug-In . SVG Version: 6.00 Build 0)  -->
<svg version="1.1" id="Layer_1" xmlns="http://www.w3.org/2000/svg" xmlns:xlink="http://www.w3.org/1999/xlink" x="0px" y="0px"
	 viewBox="0 0 1187 184.5" style="enable-background:new 0 0 1187 184.5;" xml:space="preserve">
<style type="text/css">
	.st0{clip-path:url(#SVGID_2_);fill:none;}
	.st1{clip-path:url(#SVGID_2_);fill:#624964;}
	.st2{clip-path:url(#SVGID_2_);}
	.st3{fill:none;}
	.st4{opacity:0.2;}
	.st5{fill:url(#SVGID_3_);}
	.st6{fill:url(#SVGID_4_);}
	.st7{fill:url(#SVGID_5_);}
	.st8{fill:url(#SVGID_6_);}
	.st9{opacity:0.35;}
	.st10{fill:url(#SVGID_7_);}
	.st11{opacity:0.25;}
	.st12{fill:url(#SVGID_8_);}
</style>
<title>Asset 1</title>
<g>
	<defs>
		<rect id="SVGID_1_" width="1187" height="184.5"/>
	</defs>
	<clipPath id="SVGID_2_">
		<use xlink:href="#SVGID_1_"  style="overflow:visible;"/>
	</clipPath>
	<rect y="-0.9" class="st0" width="1187" height="186"/>
	<rect y="-0.9" class="st1" width="1187" height="187"/>
	<g id="hearts_BG" class="st2">
		<g id="hearts_BG-2">
			<rect y="-0.6" class="st3" width="1187" height="185.2"/>
			<g>
				<g class="st4">
					
						<linearGradient id="SVGID_3_" gradientUnits="userSpaceOnUse" x1="233.96" y1="3926.21" x2="1837.26" y2="3926.21" gradientTransform="matrix(1 0 0 -1 -442.06 4105.9102)">
						<stop  offset="0" style="stop-color:#FF6134"/>
						<stop  offset="0.45" style="stop-color:#FC4844"/>
						<stop  offset="0.82" style="stop-color:#FA394E"/>
					</linearGradient>
					<polygon class="st5" points="1288.2,-300.1 1288.2,-407.1 1181.2,-407.1 1181.2,-514 753.7,-514 753.7,-407.1 646.7,-407.1 
						646.7,-300.1 540.2,-300.1 540.2,-407.1 433.3,-407.1 433.3,-514 5.8,-514 5.8,-407.1 -101.2,-407.1 -101.2,-300.1 
						-208.1,-300.1 -208.1,124.6 -101.2,124.6 -101.2,231.6 5.8,231.6 5.8,338.5 112.8,338.5 112.8,445.5 219.8,445.5 219.8,552.5 
						326.7,552.5 326.7,659.5 433.3,659.5 433.3,766.4 540.2,766.4 540.2,873.4 647.2,873.4 647.2,766.4 753.7,766.4 753.7,659.5 
						860.3,659.5 860.3,552.5 967.2,552.5 967.2,445.5 1074.2,445.5 1074.2,338.5 1181.2,338.5 1181.2,231.6 1288.2,231.6 
						1288.2,124.6 1395.2,124.6 1395.2,-300.1 					"/>
				</g>
				<g class="st4">
					
						<linearGradient id="SVGID_4_" gradientUnits="userSpaceOnUse" x1="501.06" y1="3926.21" x2="1570.0601" y2="3926.21" gradientTransform="matrix(1 0 0 -1 -442.06 4105.9102)">
						<stop  offset="0" style="stop-color:#FF6134"/>
						<stop  offset="0.45" style="stop-color:#FC4844"/>
						<stop  offset="0.82" style="stop-color:#FA394E"/>
					</linearGradient>
					<polygon class="st6" points="1056.6,-140.2 1056.6,-211.5 985.3,-211.5 985.3,-282.8 700.3,-282.8 700.3,-211.5 629,-211.5 
						629,-140.2 558,-140.2 558,-211.5 486.7,-211.5 486.7,-282.8 201.7,-282.8 201.7,-211.5 130.4,-211.5 130.4,-140.2 59,-140.2 
						59,142.9 130.4,142.9 130.4,214.3 201.7,214.3 201.7,285.6 273,285.6 273,356.9 344.3,356.9 344.3,428.2 415.6,428.2 
						415.6,499.5 486.7,499.5 486.7,570.8 558,570.8 558,642.2 629.3,642.2 629.3,570.8 700.3,570.8 700.3,499.5 771.4,499.5 
						771.4,428.2 842.7,428.2 842.7,356.9 914,356.9 914,285.6 985.3,285.6 985.3,214.3 1056.6,214.3 1056.6,142.9 1128,142.9 
						1128,-140.2 					"/>
				</g>
				<g class="st4">
					
						<linearGradient id="SVGID_5_" gradientUnits="userSpaceOnUse" x1="679.26" y1="3926.21" x2="1391.86" y2="3926.21" gradientTransform="matrix(1 0 0 -1 -442.06 4105.9102)">
						<stop  offset="0" style="stop-color:#FF6134"/>
						<stop  offset="0.45" style="stop-color:#FC4844"/>
						<stop  offset="0.82" style="stop-color:#FA394E"/>
					</linearGradient>
					<polygon class="st7" points="902.3,-33.5 902.3,-81.1 854.7,-81.1 854.7,-128.6 664.7,-128.6 664.7,-81.1 617.2,-81.1 
						617.2,-33.5 569.8,-33.5 569.8,-81.1 522.3,-81.1 522.3,-128.6 332.3,-128.6 332.3,-81.1 284.7,-81.1 284.7,-33.5 237.2,-33.5 
						237.2,155.2 284.7,155.2 284.7,202.8 332.3,202.8 332.3,250.3 379.8,250.3 379.8,297.8 427.4,297.8 427.4,345.4 475,345.4 
						475,393 522.3,393 522.3,440.5 569.8,440.5 569.8,488 617.4,488 617.4,440.5 664.7,440.5 664.7,393 712.1,393 712.1,345.4 
						759.6,345.4 759.6,297.8 807.2,297.8 807.2,250.3 854.7,250.3 854.7,202.8 902.3,202.8 902.3,155.2 949.8,155.2 949.8,-33.5 
											"/>
				</g>
				<g class="st4">
					
						<linearGradient id="SVGID_6_" gradientUnits="userSpaceOnUse" x1="797.96" y1="3926.26" x2="1273.1599" y2="3926.26" gradientTransform="matrix(1 0 0 -1 -442.06 4105.9102)">
						<stop  offset="0" style="stop-color:#FF6134"/>
						<stop  offset="0.45" style="stop-color:#FC4844"/>
						<stop  offset="0.82" style="stop-color:#FA394E"/>
					</linearGradient>
					<polygon class="st8" points="799.4,37.5 799.4,5.8 767.7,5.8 767.7,-25.9 641,-25.9 641,5.8 609.3,5.8 609.3,37.5 577.7,37.5 
						577.7,5.8 546,5.8 546,-25.9 419.4,-25.9 419.4,5.8 387.6,5.8 387.6,37.5 355.9,37.5 355.9,163.3 387.6,163.3 387.6,195.1 
						419.4,195.1 419.4,226.8 451.1,226.8 451.1,258.5 482.8,258.5 482.8,290.2 514.5,290.2 514.5,321.8 546,321.8 546,353.5 
						577.7,353.5 577.7,385.2 609.4,385.2 609.4,353.5 641,353.5 641,321.8 672.5,321.8 672.5,290.2 704.2,290.2 704.2,258.5 
						735.9,258.5 735.9,226.8 767.7,226.8 767.7,195.1 799.4,195.1 799.4,163.3 831.1,163.3 831.1,37.5 					"/>
				</g>
				<g class="st9">
					
						<linearGradient id="SVGID_7_" gradientUnits="userSpaceOnUse" x1="877.16" y1="3925.8098" x2="1193.96" y2="3925.8098" gradientTransform="matrix(1 0 0 -1 -442.06 4105.9102)">
						<stop  offset="0" style="stop-color:#FF6134"/>
						<stop  offset="0.45" style="stop-color:#FC4844"/>
						<stop  offset="0.82" style="stop-color:#FA394E"/>
					</linearGradient>
					<polygon class="st10" points="730.8,85.3 730.8,64.2 709.6,64.2 709.6,43 625.1,43 625.1,64.2 604,64.2 604,85.3 583,85.3 
						583,64.2 561.9,64.2 561.9,43 477.4,43 477.4,64.2 456.3,64.2 456.3,85.3 435.1,85.3 435.1,169.2 456.3,169.2 456.3,190.3 
						477.4,190.3 477.4,211.4 498.5,211.4 498.5,232.6 519.7,232.6 519.7,253.7 540.8,253.7 540.8,274.8 561.9,274.8 561.9,296 
						583,296 583,317.2 604.1,317.2 604.1,296 625.1,296 625.1,274.8 646.2,274.8 646.2,253.7 667.3,253.7 667.3,232.6 688.5,232.6 
						688.5,211.4 709.6,211.4 709.6,190.3 730.8,190.3 730.8,169.2 751.9,169.2 751.9,85.3 					"/>
				</g>
				<g class="st11">
					
						<linearGradient id="SVGID_8_" gradientUnits="userSpaceOnUse" x1="929.96" y1="3926.26" x2="1141.1599" y2="3926.26" gradientTransform="matrix(1 0 0 -1 -442.06 4105.9102)">
						<stop  offset="0" style="stop-color:#FF6134"/>
						<stop  offset="0.45" style="stop-color:#FC4844"/>
						<stop  offset="0.82" style="stop-color:#FA394E"/>
					</linearGradient>
					<polygon class="st12" points="685,116.5 685,102.4 670.9,102.4 670.9,88.3 614.6,88.3 614.6,102.4 600.5,102.4 600.5,116.5 
						586.5,116.5 586.5,102.4 572.4,102.4 572.4,88.3 516.1,88.3 516.1,102.4 502,102.4 502,116.5 487.9,116.5 487.9,172.4 
						502,172.4 502,186.5 516.1,186.5 516.1,200.7 530.2,200.7 530.2,214.7 544.3,214.7 544.3,228.8 558.4,228.8 558.4,242.9 
						572.4,242.9 572.4,257 586.5,257 586.5,271 600.6,271 600.6,257 614.6,257 614.6,242.9 628.6,242.9 628.6,228.8 642.8,228.8 
						642.8,214.7 656.8,214.7 656.8,200.7 670.9,200.7 670.9,186.5 685,186.5 685,172.4 699.1,172.4 699.1,116.5 					"/>
				</g>
			</g>
		</g>
	</g>
</g>
</svg>
