<svg xmlns="http://www.w3.org/2000/svg" viewBox="0 0 85 23"><path d="M3.7 6.8c.3.4.4.8.5 1.5 1-1 2.2-1.5 3.6-1.5 1.2 0 2.2.4 3 1.2.2.2.4.5.6.7 1.3-1.4 2.6-1.9 4.2-1.9 1.2 0 2.2.3 2.9.9.8.7 1.1 1.6 1.1 3.6v10.5h-3.7v-9.7c0-1.8-.2-2.1-1.2-2.1-.7 0-1.7.5-2.6 1.2v10.6H8.4v-9.6c0-1.8-.3-2.3-1.3-2.3-.7 0-1.7.4-2.5 1.1v10.7H.8V11.5c0-2.1-.1-3-.6-3.8l3.5-.9zM33.4 9c1.2 1.4 1.7 3 1.7 5.4 0 2.5-.6 4.3-1.8 5.7-1.1 1.3-2.6 2-4.9 2-4 0-6.6-3-6.6-7.6s2.6-7.7 6.6-7.7c2 0 3.7.7 5 2.2zm-7 2.1c-.3.8-.4 1.8-.4 3.3 0 1.7.2 3 .5 3.7.3.8 1.2 1.2 2 1.2 1.7 0 2.4-1.5 2.4-5 0-2-.3-3.3-.8-3.9-.4-.5-1-.8-1.7-.8-.9 0-1.7.6-2 1.5zm21.1-4v2.6L41 19.1h6.8l-.9 2.7h-11v-2.4l6.9-9.6h-6.4V7.1h11.1zM54 3c0 1.3-1.1 2.4-2.4 2.4-1.3 0-2.4-1.1-2.4-2.4 0-1.3 1.1-2.4 2.4-2.4C53 .6 54 1.7 54 3zm-.5 3.7v15.1h-3.9V7.3l3.9-.6zm7.1-2.4v11.5c0 2.5 0 2.9.3 3.3.1.3.5.4.8.4.1 0 .2 0 .4-.1l.7 2.3c-.7.3-1.5.4-2.3.4-1.6 0-3-.8-3.4-2-.3-.7-.4-1.2-.4-3.3v-11c0-1.9 0-3.1-.2-4.4l3.9-.9c.1.8.2 1.8.2 3.8zm8 0v11.5c0 2.5 0 2.9.3 3.3.1.3.4.4.8.4.1 0 .2 0 .4-.1l.7 2.3c-.7.3-1.5.4-2.3.4-1.6 0-3-.8-3.4-2-.3-.7-.3-1.2-.3-3.3v-11c0-1.9-.1-3.1-.2-4.4l3.9-.9c0 .8.1 1.8.1 3.8zm6 3.3c1.4-.6 2.7-.9 4-.9 2.5 0 4.2.9 4.8 2.6.2.6.3 1.1.3 2.6l-.1 5v.3c0 1.6.3 2.2 1.4 3l-2 2.4c-.9-.4-1.7-1-2.1-1.8-.3.3-.6.6-.9.8-.7.5-1.8.8-3 .8-3.3 0-5.1-1.7-5.1-4.6 0-3.5 2.4-5.1 7.1-5.1h.9v-.6c0-1.6-.3-2.2-1.7-2.2-1.2 0-2.7.6-4.3 1.7l-1.6-2.8c.7-.5 1.3-.8 2.3-1.2zm5 7.8c-2.7 0-3.6.5-3.6 2.2 0 1.1.7 1.9 1.7 1.9.7 0 1.4-.4 2-1l.1-3.2h-.2z" fill="gray"/></svg>