<svg xmlns="http://www.w3.org/2000/svg" viewBox="0 0 103.79 28.36"><title>sepa-logo</title><g id="Layer_2" data-name="Layer 2"><g id="Layer_1-2" data-name="Layer 1"><path d="M23.06,9.05H16a4.61,4.61,0,0,0-.41-2.35c-.42-.59-1.59-.88-3.5-.88a8.63,8.63,0,0,0-3.68.51q-.9.51-.9,2.22a2.21,2.21,0,0,0,.8,2A3.3,3.3,0,0,0,9.78,11l1.43.1q4.6.3,5.75.43a8.78,8.78,0,0,1,5.28,1.93,5.17,5.17,0,0,1,1.54,3.2,23.69,23.69,0,0,1,.14,2.67,14.3,14.3,0,0,1-.65,5Q22.09,27.26,17.94,28a32.48,32.48,0,0,1-5.32.32,32.59,32.59,0,0,1-8.31-.71,5.41,5.41,0,0,1-3.8-3.54A16.88,16.88,0,0,1,0,19.16H7.1v.59c0,1.23.36,2,1.06,2.38a4.14,4.14,0,0,0,1.78.38h2.61a9.43,9.43,0,0,0,2.55-.2,2.12,2.12,0,0,0,1.29-1.24,5.09,5.09,0,0,0,.16-1.37c0-1.25-.46-2-1.37-2.28A41.46,41.46,0,0,0,10.43,17c-2.27-.16-3.85-.31-4.73-.47q-3.48-.64-4.65-2.68A10.59,10.59,0,0,1,0,8.58,13.38,13.38,0,0,1,.59,4.31,4.67,4.67,0,0,1,2.36,1.86,9.07,9.07,0,0,1,7,.35c1.55-.13,3.27-.2,5.16-.2a27.56,27.56,0,0,1,6.37.51q4.64,1.24,4.64,7C23.13,8,23.11,8.42,23.06,9.05Z" style="fill:#fff"/><path d="M54.29,28.36V0H68.51A15.78,15.78,0,0,1,73,.48,6.94,6.94,0,0,1,77.69,5a17.53,17.53,0,0,1,.62,5.37,19.87,19.87,0,0,1-.69,6.21A6.38,6.38,0,0,1,72,20.85c-.34.06-1.75.11-4.26.15l-1.27,0H61.92v7.32Zm7.63-13.9h4.76a8.46,8.46,0,0,0,2.76-.35,2.05,2.05,0,0,0,.9-1.49,12.07,12.07,0,0,0,.15-2.21,9.19,9.19,0,0,0-.29-2.67,2.26,2.26,0,0,0-2-1.49,14.77,14.77,0,0,0-1.48,0H61.92Z" style="fill:#fff"/><path d="M94.6,23.46H84.4L83,28.36h-7.9L83.65,0H95.17l8.62,28.36H96.06Zm-1.51-5.52L89.51,5.64,86,17.94Z" style="fill:#fff"/><path d="M53.29,4.1A14.66,14.66,0,0,0,35.1,2.61a14.13,14.13,0,0,0-5.18,6.3H26.71l0,.07L24.78,13l-.08.17h4.19c0,.37-.05.7-.05,1s0,.83.07,1.26h-2l0,.07L25,19.62l-.08.17H30a14.4,14.4,0,0,0,13.25,8.53,14.55,14.55,0,0,0,8.11-2.44l0,0V20.48l-.21.24a9.9,9.9,0,0,1-15.64-.93H45.93l0-.07,1.89-4.06.08-.17h-14a10.67,10.67,0,0,1-.1-1.38c0-.3,0-.6.05-.9H49l0-.07,1.89-4.06L51,8.91H35.27A9.9,9.9,0,0,1,51.46,7.79l.13.15.08-.18,1.65-3.52,0-.08Z" style="fill:#fff"/></g></g></svg>